inDegrees=no
num_controls=7
num_derivatives=13
num_iterations=206
num_multipliers=7
num_parameters=0
num_slacks=7
num_states=26
objective=5.228874
objective_accelerations=0.760164
objective_balance=0.037679
objective_effort=0.248947
objective_height=4.155068
objective_ligament=0.027017
solver_duration=2241.471480
status=Solve_Succeeded
success=true
DataType=double
version=3
OpenSimVersion=4.4-2022-07-23-0e9fedc
endheader
time	/jointset/ground_pelvis/pelvis_tilt/value	/jointset/ground_pelvis/pelvis_tx/value	/jointset/ground_pelvis/pelvis_ty/value	/jointset/hip_l/hip_flexion_l/value	/jointset/hip_l/hip_adduction_l/value	/jointset/hip_l/hip_rotation_l/value	/jointset/back/lumbar_extension/value	/jointset/patellofemoral_l/patellar_flexion_l/value	/jointset/knee_l/knee_flexion_l/value	/jointset/knee_l/knee_adduction_l/value	/jointset/knee_l/knee_rotation_l/value	/jointset/ankle_l/ankle_angle_l/value	/jointset/subtalar_l/subtalar_angle_l/value	/jointset/ground_pelvis/pelvis_tilt/speed	/jointset/ground_pelvis/pelvis_tx/speed	/jointset/ground_pelvis/pelvis_ty/speed	/jointset/hip_l/hip_flexion_l/speed	/jointset/hip_l/hip_adduction_l/speed	/jointset/hip_l/hip_rotation_l/speed	/jointset/back/lumbar_extension/speed	/jointset/patellofemoral_l/patellar_flexion_l/speed	/jointset/knee_l/knee_flexion_l/speed	/jointset/knee_l/knee_adduction_l/speed	/jointset/knee_l/knee_rotation_l/speed	/jointset/ankle_l/ankle_angle_l/speed	/jointset/subtalar_l/subtalar_angle_l/speed	/forceset/tau_hip_flexion_l	/forceset/tau_hip_adduction_l	/forceset/tau_hip_rotation_l	/forceset/tau_knee_flexion_l	/forceset/tau_ankle_angle_l	/forceset/tau_subtalar_angle_l	/forceset/tau_lumbar_extension	lambda_cid13_p0	lambda_cid13_p1	lambda_cid13_p2	lambda_cid13_p3	lambda_cid13_p4	lambda_cid13_p5	lambda_cid14_p0	/jointset/ground_pelvis/pelvis_tilt/accel	/jointset/ground_pelvis/pelvis_tx/accel	/jointset/ground_pelvis/pelvis_ty/accel	/jointset/hip_l/hip_flexion_l/accel	/jointset/hip_l/hip_adduction_l/accel	/jointset/hip_l/hip_rotation_l/accel	/jointset/back/lumbar_extension/accel	/jointset/patellofemoral_l/patellar_flexion_l/accel	/jointset/knee_l/knee_flexion_l/accel	/jointset/knee_l/knee_adduction_l/accel	/jointset/knee_l/knee_rotation_l/accel	/jointset/ankle_l/ankle_angle_l/accel	/jointset/subtalar_l/subtalar_angle_l/accel	gamma_cid13_p0	gamma_cid13_p1	gamma_cid13_p2	gamma_cid13_p3	gamma_cid13_p4	gamma_cid13_p5	gamma_cid14_p0
1.5	-0.6112115202708344	-0.04583235359141954	0.7780887240698219	1.284672704400227	-0.366291436108431	-0.08471425550421109	-0.3498300335750279	0.5947860247346702	0.5947860247347073	-0.1012869754427147	-0.1689636043750352	0.01266052841534257	0.05878462314131306	1.217843826191809	0.5035794747394171	0.5127065956820501	-3.022190991864006	-0.004080182986545734	-0.5275455133014851	0.5903584693458201	-1.605424702754899	-1.605424702754871	-0.1964909683202496	0.05534874973694939	0.08302987788940563	0.02550902808852181	-0.2229682397875087	0.003435074528628748	0.02115318679232509	-0.05749418232498183	0.02099671703505619	0.008983554127126083	0.1769093769438002	-17.15103290825859	-3.890386000245999	3.756636057059913	-6.403092275292637	-430.2460487573723	-64.96782149556715	-19.25015217687147	0.8816322914989085	0.9255038685004006	-0.5941192707193548	-1.925713181094145	0.3833280979315813	-0.1276439549694244	2.00658740417816	-0.7092996878632002	-0.7092996878631833	-0.1024043917477555	0.4024313140429732	0.3578571734577823	0.4933156238446795	2.542011188869562e-08	1.952203755763782e-06	-3.543042561123938e-07	3.870300929141386e-07	4.958950766377522e-07	-2.775670372502369e-07	3.781722212485077e-07
1.51	-0.5989895417051975	-0.04075078282189393	0.7831850450781942	1.254356570905093	-0.3663149011565458	-0.08999848239173606	-0.3438285026233859	0.5786981141487697	0.5786981141487769	-0.1032589995701532	-0.1683939623874797	0.01350829366840683	0.05906243930565484	1.226356182914718	0.5126656574269199	0.5064421068049266	-3.04061133145564	-0.0006100005753669476	-0.5292306426685107	0.6098593636357312	-1.611943057557369	-1.611943057557351	-0.197894707955388	0.05859072056154025	0.08652726539264975	0.03005884415171505	-0.2152384632954048	0.002049084155991409	0.02161873308152487	-0.05653839551276057	0.01848631813798671	0.007689965545871301	0.171305159421678	-17.80189847802891	-3.391784319970149	3.879510896457657	-5.719651671153082	-425.8692891246749	-64.74614955729844	-19.79676680521296	0.8067152061883567	0.8899081639496875	-0.659836603911908	-1.736496298953344	0.3289391163673269	-0.1782574250273891	1.908586839369915	-0.5910268046313875	-0.5910268046327741	-0.1560703877525282	0.2865922476380859	0.346346733739442	0.4361943134972122	8.722971866654964e-09	2.107437879779367e-06	-2.742897219114735e-07	4.152446832629066e-07	5.05106719144367e-07	-2.473372057946702e-07	3.825409226636655e-07
1.52	-0.5866883040036316	-0.0355804036864784	0.7882152766162547	1.223868973623891	-0.3663036492198176	-0.09529742257242296	-0.3376346134492505	0.5625514353292113	0.5625514353291797	-0.1052444034216338	-0.1677915982354741	0.01439116623549989	0.05938582957381666	1.233695653377685	0.5213411479174036	0.4994887016196841	-3.056483749077484	0.002863213982064123	-0.5304881719338655	0.6288301138445361	-1.617178349487538	-1.617178349487529	-0.1991669131247517	0.06189318262496862	0.09005134069516135	0.03462384885253097	-0.2075086868033013	0.0006630937833541585	0.02208427937067014	-0.05558260870053548	0.01597591924091733	0.006396376964617303	0.1657009418995551	-18.45545615438953	-2.892429715218981	4.001944571958121	-5.02728777782624	-421.5311249719352	-64.58336168374913	-20.32369395996142	0.6470550395105472	0.8433654290965936	-0.7319025323431483	-1.416128787136152	0.383934527182042	-0.04212393463523285	1.900558587956932	-0.4526871134031025	-0.4526871134030965	-0.07609749859283177	0.4145295618104751	0.3631947333112749	0.4963533513692157	-7.856482383012351e-09	2.232327182228049e-06	-2.073699527156082e-07	4.3744587931914e-07	5.123074555552128e-07	-2.12106685891385e-07	3.830929779322238e-07
1.53	-0.57431947302951	-0.03032547061725492	0.7931725942023981	1.193235440382895	-0.3662575809340402	-0.1006072121732406	-0.3312539500794167	0.5463588758468053	0.5463588758467735	-0.1072416047608551	-0.1671562117345848	0.01530933242463052	0.0597549990842365	1.239871991272548	0.5295603211070835	0.4918647915907595	-3.06977756747257	0.006350546302244723	-0.5314016253099157	0.6471929119495952	-1.621111513019933	-1.621111513019899	-0.2002504202160006	0.06518969340582229	0.09357519200025002	0.03920918739894857	-0.1999082361355005	-0.0001619167029945647	0.02249057440723211	-0.054457697351775	0.01335197297728216	0.004349527726708114	0.1601147160189415	-19.19664903330603	-2.066685118901216	4.090727066579873	-4.1882019630037	-417.3233892365465	-63.75475257934509	-20.82796899051606	0.5731690921931009	0.7985138854391602	-0.7940348243572938	-1.219172175355568	0.330757175299278	-0.1054403291016517	1.787693195882944	-0.3304014199586626	-0.3304014199549299	-0.1205861439381679	0.2879138534931392	0.3460296161835321	0.4391364270007552	-2.431089549953299e-08	2.324975111761897e-06	-1.543633713376138e-07	4.532578439395553e-07	5.173716042393042e-07	-1.71562934512399e-07	3.795898466700203e-07
1.54	-0.5618948294908961	-0.02499088169182754	0.798050392771014	1.162482336196017	-0.3661767144068884	-0.1059240331658208	-0.3246929481737118	0.5301336306397134	0.5301336306396847	-0.1092488629368883	-0.1664877197224383	0.01626254698422724	0.06016992444426507	1.24485816627617	0.5372723191581835	0.4835848981142326	-3.080397938254088	0.009822862256953665	-0.5318944502864361	0.6648978210187571	-1.623715494424369	-1.62371549442431	-0.201178280489139	0.06851428487748948	0.09706101478837294	0.04377501877427525	-0.1923077854676989	-0.0009869271893419918	0.02289686944382614	-0.05333278600301596	0.01072802671364723	0.002302678488799903	0.154528490138328	-19.94151993591984	-1.238776761514176	4.177429197192801	-3.332034830218424	-413.163018784504	-62.9807427688005	-21.30670936009465	0.4090224612622985	0.7419304013806252	-0.8630992218635728	-0.8814392644227527	0.3809312540877088	0.0420017452707043	1.768980780777517	-0.186850687811428	-0.1868506878114289	-0.04496813497075017	0.4201456999731845	0.3555890299181251	0.4924519171510313	-3.810358647491813e-08	2.431437010819024e-06	-1.02913347228179e-07	4.639655902727874e-07	5.299511482870239e-07	-1.309705307321752e-07	3.776363710557466e-07
